<svg width="173" height="29" viewBox="0 0 173 29" fill="none" xmlns="http://www.w3.org/2000/svg">
<path d="M4.25071 23.2983V19.5483H5.43324C6.02273 19.5483 6.49858 19.4773 6.8608 19.3352C7.22301 19.1861 7.51065 18.9695 7.72372 18.6854C7.94389 18.3942 8.12855 18.032 8.2777 17.5987L8.54403 16.8849L0.617898 1.18182H5.39062L10.5256 11.9205L14.8189 1.18182H19.5277L12.0064 18.7173C11.6442 19.527 11.2145 20.2798 10.7173 20.9759C10.2273 21.6719 9.59872 22.233 8.83168 22.6591C8.06463 23.0852 7.08452 23.2983 5.89134 23.2983H4.25071ZM30.4102 17.9822L34.842 6.63636H38.2937L31.9123 23H28.8974L22.6651 6.63636H26.1062L30.4102 17.9822ZM25.0728 6.63636V23H20.7369V6.63636H25.0728ZM35.9712 23V6.63636H40.2539V23H35.9712ZM55.1527 13.0071V16.576H46.6087V13.0071H55.1527ZM48.1001 6.63636V23H43.7642V6.63636H48.1001ZM57.9972 6.63636V23H53.6932V6.63636H57.9972ZM64.3626 11.6648H69.2525C71.4187 11.6648 73.109 12.1832 74.3235 13.2202C75.538 14.25 76.1452 15.6278 76.1452 17.3537C76.1452 18.4759 75.8718 19.4631 75.3249 20.3153C74.7781 21.1605 73.9897 21.821 72.9599 22.2969C71.93 22.7656 70.6942 23 69.2525 23H61.5181V6.63636H65.854V19.4311H69.2525C70.0124 19.4311 70.6374 19.2393 71.1275 18.8558C71.6175 18.4723 71.8661 17.9822 71.8732 17.3857C71.8661 16.7536 71.6175 16.2386 71.1275 15.8409C70.6374 15.4361 70.0124 15.2337 69.2525 15.2337H64.3626V11.6648ZM77.9031 23V6.63636H82.4414V23H77.9031ZM90.4048 17.0128L96.2962 6.63636H100.771V23H96.4453V12.5916L90.5753 23H86.0689V6.63636H90.4048V17.0128ZM95.5185 0.926135H98.6825C98.6754 2.21875 98.196 3.25923 97.2443 4.04758C96.2997 4.83594 95.0213 5.23011 93.4091 5.23011C91.7898 5.23011 90.5078 4.83594 89.5632 4.04758C88.6186 3.25923 88.1463 2.21875 88.1463 0.926135H91.2891C91.282 1.41619 91.4382 1.85653 91.7578 2.24716C92.0845 2.63778 92.6349 2.8331 93.4091 2.8331C94.1619 2.8331 94.7017 2.64134 95.0284 2.25781C95.3551 1.87429 95.5185 1.4304 95.5185 0.926135Z" fill="white"/>
<path d="M110.255 28.2628V19.3246H111.736C112.24 18.9624 112.702 18.451 113.121 17.7905C113.54 17.1229 113.898 16.2031 114.197 15.0312C114.495 13.8523 114.708 12.3111 114.836 10.4077L115.454 1.18182H129.889V19.3246H132.275V28.2415H127.844V23H114.687V28.2628H110.255ZM117.062 19.3246H125.457V4.98508H119.608L119.268 10.4077C119.175 11.8494 119.023 13.1278 118.809 14.2429C118.604 15.358 118.351 16.3345 118.053 17.1726C117.762 18.0036 117.432 18.7209 117.062 19.3246ZM142.388 23.3196C140.733 23.3196 139.302 22.968 138.095 22.2649C136.895 21.5547 135.968 20.5675 135.314 19.3033C134.661 18.032 134.334 16.5582 134.334 14.8821C134.334 13.1918 134.661 11.7145 135.314 10.4503C135.968 9.17898 136.895 8.19176 138.095 7.48864C139.302 6.77841 140.733 6.4233 142.388 6.4233C144.043 6.4233 145.471 6.77841 146.671 7.48864C147.878 8.19176 148.809 9.17898 149.462 10.4503C150.115 11.7145 150.442 13.1918 150.442 14.8821C150.442 16.5582 150.115 18.032 149.462 19.3033C148.809 20.5675 147.878 21.5547 146.671 22.2649C145.471 22.968 144.043 23.3196 142.388 23.3196ZM142.409 19.804C143.162 19.804 143.791 19.5909 144.295 19.1648C144.799 18.7315 145.179 18.142 145.435 17.3963C145.698 16.6506 145.829 15.8018 145.829 14.8501C145.829 13.8984 145.698 13.0497 145.435 12.304C145.179 11.5582 144.799 10.9687 144.295 10.5355C143.791 10.1023 143.162 9.88565 142.409 9.88565C141.65 9.88565 141.01 10.1023 140.492 10.5355C139.98 10.9687 139.593 11.5582 139.331 12.304C139.075 13.0497 138.947 13.8984 138.947 14.8501C138.947 15.8018 139.075 16.6506 139.331 17.3963C139.593 18.142 139.98 18.7315 140.492 19.1648C141.01 19.5909 141.65 19.804 142.409 19.804ZM163.066 17.9822L167.498 6.63636H170.95L164.569 23H161.554L155.321 6.63636H158.762L163.066 17.9822ZM157.729 6.63636V23H153.393V6.63636H157.729ZM168.627 23V6.63636H172.91V23H168.627Z" fill="#03C782"/>
</svg>
